<svg width="24" height="24" viewBox="0 0 24 24" fill="none" xmlns="http://www.w3.org/2000/svg">
<path fill-rule="evenodd" clip-rule="evenodd" d="M5.11877 8.24268H5.09337C3.82338 8.24268 3 7.30793 3 6.12307C3 4.91516 3.84772 4 5.14311 4C6.43744 4 7.2333 4.91285 7.2587 6.11961C7.2587 7.30448 6.43744 8.24268 5.11877 8.24268ZM21.0001 22.0001H17.0218V15.6723C17.0218 14.0161 16.3995 12.8854 15.0311 12.8854C13.9844 12.8854 13.4024 13.6484 13.1314 14.3837C13.042 14.6161 13.0436 14.9289 13.0452 15.2514V15.2514C13.0455 15.2952 13.0457 15.3391 13.0457 15.383V22.0001H9.10449C9.10449 22.0001 9.15529 10.7911 9.10449 9.77223H13.0457V11.6913C13.2785 10.8522 14.5379 9.65466 16.5477 9.65466C19.0411 9.65466 21.0001 11.4135 21.0001 15.2009V22.0001ZM6.96245 9.77222H3.4541V22H6.96245V9.77222Z" fill="currentColor"/>
</svg>
