<svg width="24" height="24" viewBox="0 0 24 24" fill="none" xmlns="http://www.w3.org/2000/svg">
<path d="M21.9376 5.07013C21.5195 4.65061 21.0227 4.31774 20.4757 4.09062C19.9288 3.8635 19.3423 3.74658 18.7501 3.74658C18.1578 3.74658 17.5714 3.8635 17.0244 4.09062C16.4774 4.31774 15.9806 4.65061 15.5626 5.07013L16.6276 6.13513C16.9068 5.85591 17.2383 5.63442 17.6031 5.4833C17.9679 5.33219 18.3589 5.25441 18.7538 5.25441C19.1487 5.25441 19.5397 5.33219 19.9045 5.4833C20.2694 5.63442 20.6008 5.85591 20.8801 6.13513C21.1593 6.41435 21.3808 6.74584 21.5319 7.11066C21.683 7.47548 21.7608 7.8665 21.7608 8.26138C21.7608 8.65626 21.683 9.04728 21.5319 9.4121C21.3808 9.77692 21.1593 10.1084 20.8801 10.3876L14.8801 16.3876C14.3171 16.9515 13.5533 17.2687 12.7565 17.2695C11.9597 17.2702 11.1952 16.9543 10.6313 16.3914C10.0674 15.8285 9.7502 15.0646 9.74949 14.2678C9.74879 13.471 10.0646 12.7065 10.6276 12.1426L11.6851 11.0776L10.6276 10.0126L9.56256 11.0776C9.14304 11.4957 8.81018 11.9925 8.58305 12.5394C8.35593 13.0864 8.23901 13.6729 8.23901 14.2651C8.23901 14.8574 8.35593 15.4438 8.58305 15.9908C8.81018 16.5378 9.14304 17.0346 9.56256 17.4526C10.4112 18.2904 11.5576 18.757 12.7501 18.7501C13.3446 18.7526 13.9337 18.6372 14.4834 18.4106C15.0331 18.184 15.5324 17.8508 15.9526 17.4301L21.9526 11.4301C22.7933 10.5844 23.2639 9.43953 23.2611 8.24703C23.2583 7.05452 22.7823 5.91189 21.9376 5.07013Z" fill="currentColor"/>
<path d="M3.1426 18.6149C2.86254 18.3361 2.64032 18.0048 2.48868 17.6399C2.33704 17.275 2.25898 16.8838 2.25898 16.4886C2.25898 16.0935 2.33704 15.7022 2.48868 15.3373C2.64032 14.9725 2.86254 14.6411 3.1426 14.3624L9.1426 8.36237C9.42135 8.08231 9.75269 7.86008 10.1176 7.70844C10.4825 7.55681 10.8737 7.47875 11.2688 7.47875C11.664 7.47875 12.0552 7.55681 12.4201 7.70844C12.785 7.86008 13.1163 8.08231 13.3951 8.36237C13.6734 8.64332 13.8925 8.97727 14.0393 9.34443C14.1862 9.71159 14.2579 10.1045 14.2501 10.4999C14.2524 10.8965 14.176 11.2896 14.0254 11.6565C13.8748 12.0234 13.6529 12.3568 13.3726 12.6374L11.7826 14.2499L12.8476 15.3149L14.4376 13.7249C15.284 12.8785 15.7595 11.7306 15.7595 10.5336C15.7595 9.33667 15.284 8.18874 14.4376 7.34237C13.5912 6.49599 12.4433 6.02051 11.2463 6.02051C10.0494 6.02051 8.90147 6.49599 8.0551 7.34237L2.0551 13.3424C1.63445 13.7606 1.30063 14.2578 1.07284 14.8055C0.845051 15.3532 0.727783 15.9405 0.727783 16.5336C0.727783 17.1268 0.845051 17.7141 1.07284 18.2618C1.30063 18.8094 1.63445 19.3067 2.0551 19.7249C2.90922 20.5562 4.05827 21.0148 5.2501 20.9999C6.45243 21.001 7.60639 20.5265 8.4601 19.6799L7.3951 18.6149C7.11634 18.8949 6.78501 19.1172 6.42012 19.2688C6.05524 19.4204 5.66399 19.4985 5.26885 19.4985C4.87371 19.4985 4.48246 19.4204 4.11758 19.2688C3.75269 19.1172 3.42135 18.8949 3.1426 18.6149Z" fill="currentColor"/>
</svg>
