<svg width="24" height="24" viewBox="0 0 24 24" fill="none" xmlns="http://www.w3.org/2000/svg">
<path d="M19.9331 13.0412C19.7442 14.4811 19.167 15.8425 18.2632 16.9793C17.3595 18.1162 16.1633 18.9855 14.803 19.4942C13.4427 20.0029 11.9696 20.1317 10.5417 19.8667C9.1138 19.6018 7.78492 18.9532 6.69761 17.9905C5.6103 17.0277 4.80557 15.7872 4.36973 14.4018C3.93389 13.0165 3.88338 11.5386 4.22362 10.1268C4.56385 8.71488 5.282 7.42227 6.30104 6.38752C7.32007 5.35278 8.60156 4.61495 10.0081 4.25317C13.9071 3.25317 17.9431 5.26017 19.4331 9.00017" stroke="currentColor" stroke-width="2" stroke-linecap="round" stroke-linejoin="round"/>
<path d="M20 4V9H15" stroke="currentColor" stroke-width="2" stroke-linecap="round" stroke-linejoin="round"/>
</svg>
