<svg width="24" height="24" viewBox="0 0 24 24" fill="none" xmlns="http://www.w3.org/2000/svg">
<path fill-rule="evenodd" clip-rule="evenodd" d="M9.686 2.51204C9.88147 2.53639 10.0702 2.59902 10.2415 2.69633C10.4128 2.79363 10.5632 2.92373 10.6842 3.07917C10.8052 3.23462 10.8944 3.41237 10.9467 3.60229C10.999 3.79221 11.0134 3.99056 10.989 4.18604L10.637 7.00004H14.613L15.012 3.81404C15.0613 3.41926 15.2655 3.06025 15.5795 2.81599C15.8935 2.57172 16.2917 2.46221 16.6865 2.51154C17.0813 2.56087 17.4403 2.765 17.6846 3.07903C17.9288 3.39306 18.0383 3.79126 17.989 4.18604L17.637 7.00004H20C20.3978 7.00004 20.7794 7.15807 21.0607 7.43938C21.342 7.72068 21.5 8.10221 21.5 8.50004C21.5 8.89786 21.342 9.27939 21.0607 9.5607C20.7794 9.842 20.3978 10 20 10H17.262L16.762 14H19.5C19.8978 14 20.2794 14.1581 20.5607 14.4394C20.842 14.7207 21 15.1022 21 15.5C21 15.8979 20.842 16.2794 20.5607 16.5607C20.2794 16.842 19.8978 17 19.5 17H16.387L15.989 20.186C15.9397 20.5808 15.7355 20.9398 15.4215 21.1841C15.1075 21.4284 14.7093 21.5379 14.3145 21.4885C13.9197 21.4392 13.5607 21.2351 13.3165 20.921C13.0722 20.607 12.9627 20.2088 13.012 19.814L13.363 17H9.388L8.99 20.186C8.94067 20.5808 8.73654 20.9398 8.42251 21.1841C8.10848 21.4284 7.71027 21.5379 7.3155 21.4885C6.92073 21.4392 6.56172 21.2351 6.31745 20.921C6.07318 20.607 5.96367 20.2088 6.013 19.814L6.363 17H4.5C4.10218 17 3.72064 16.842 3.43934 16.5607C3.15804 16.2794 3 15.8979 3 15.5C3 15.1022 3.15804 14.7207 3.43934 14.4394C3.72064 14.1581 4.10218 14 4.5 14H6.738L7.238 10H5C4.60218 10 4.22064 9.842 3.93934 9.5607C3.65804 9.27939 3.5 8.89786 3.5 8.50004C3.5 8.10221 3.65804 7.72068 3.93934 7.43938C4.22064 7.15807 4.60218 7.00004 5 7.00004H7.613L8.012 3.81404C8.03624 3.61847 8.09877 3.4296 8.19603 3.25822C8.29329 3.08683 8.42336 2.93629 8.57882 2.81519C8.73428 2.69409 8.91207 2.60482 9.10205 2.55245C9.29202 2.50009 9.49045 2.48568 9.686 2.51004V2.51204ZM13.74 14L14.24 10H10.263L9.763 14H13.74Z" fill="currentColor"/>
</svg>
