<svg width="32" height="32" viewBox="0 0 32 32" fill="none" xmlns="http://www.w3.org/2000/svg">
<path d="M16 0C14.88 0 14 0.88 14 2C14 3.12 14.88 4 16 4C17.12 4 18 3.12 18 2C18 0.88 17.12 0 16 0ZM6 4C4.88 4 4 4.88 4 6C4 7.12 4.88 8 6 8C7.12 8 8 7.12 8 6C8 4.88 7.12 4 6 4ZM26 4C24.88 4 24 4.88 24 6C24 7.12 24.88 8 26 8C27.12 8 28 7.12 28 6C28 4.88 27.12 4 26 4ZM16 8C11.6 8 8 11.6 8 16C8 20.4 11.6 24 16 24C20.4 24 24 20.4 24 16C24 11.6 20.4 8 16 8ZM2 14C0.88 14 0 14.88 0 16C0 17.12 0.88 18 2 18C3.12 18 4 17.12 4 16C4 14.88 3.12 14 2 14ZM30 14C28.88 14 28 14.88 28 16C28 17.12 28.88 18 30 18C31.12 18 32 17.12 32 16C32 14.88 31.12 14 30 14ZM6 24C4.88 24 4 24.88 4 26C4 27.12 4.88 28 6 28C7.12 28 8 27.12 8 26C8 24.88 7.12 24 6 24ZM26 24C24.88 24 24 24.88 24 26C24 27.12 24.88 28 26 28C27.12 28 28 27.12 28 26C28 24.88 27.12 24 26 24ZM16 28C14.88 28 14 28.88 14 30C14 31.12 14.88 32 16 32C17.12 32 18 31.12 18 30C18 28.88 17.12 28 16 28Z" fill="#13141E"/>
</svg>
